Coordinates
version=1
nRows=24
nColumns=24
inDegrees=yes

Units are S.I. units (second, meters, Newtons, ...)
Angles are in degrees.

endheader
time	pelvis_tilt	pelvis_list	pelvis_rotation	pelvis_tx	pelvis_ty	pelvis_tz	hip_flexion_r	hip_adduction_r	hip_rotation_r	knee_angle_r	ankle_angle_r	subtalar_angle_r	mtp_angle_r	hip_flexion_l	hip_adduction_l	hip_rotation_l	knee_angle_l	ankle_angle_l	subtalar_angle_l	mtp_angle_l	lumbar_extension	lumbar_bending	lumbar_rotation
      1.31700000	     -3.54428522	      3.63824734	     -3.29451174	      0.25965385	      0.90709913	      0.32184537	     17.80524786	     -8.55943798	    -10.42566200	    -71.23592582	     -2.54646354	      5.14797467	      9.29312325	     14.03707600	      7.13622503	     -3.56080911	    -17.99437951	      8.69426179	     -6.22282383	      3.90374769	     -3.37252959	     -5.58979542	      3.84431268
      1.32116667	     -3.58366019	      3.43942802	     -3.16739936	      0.26472824	      0.90811665	      0.32167954	     18.43449595	     -8.33667446	    -10.64077347	    -70.93602626	     -1.94159189	      4.97055450	      9.24927424	     13.47134728	      6.97719560	     -3.40672064	    -17.52211871	      8.77312342	     -6.09131158	      3.90862052	     -3.33934061	     -5.36641145	      3.79843501
      1.32533333	     -3.56696067	      3.22796587	     -3.00812128	      0.26979070	      0.90921208	      0.32143359	     18.97102702	     -8.11860654	    -10.89818723	    -70.55513868	     -1.37393768	      4.85324568	      9.07768971	     12.82907402	      6.82559945	     -3.15632334	    -17.01170190	      8.82814784	     -6.03911083	      3.91663756	     -3.41967289	     -5.09792670	      3.48039420
      1.32950000	     -3.58964180	      3.03153956	     -2.85102838	      0.27481576	      0.91019244	      0.32121184	     19.55052050	     -7.90387055	    -11.13761976	    -70.12949053	     -0.78793485	      4.68318191	      8.98299801	     12.24969503	      6.67486460	     -2.95799006	    -16.52813662	      8.83451538	     -5.94741819	      3.92203555	     -3.44127814	     -4.84877652	      3.30244677
      1.33366667	     -3.57159244	      2.83955799	     -2.68072357	      0.27988290	      0.91122834	      0.32096268	     20.05517652	     -7.70393397	    -11.39692529	    -69.62249756	     -0.26211086	      4.55287849	      8.69060666	     11.59301668	      6.54095817	     -2.69340497	    -15.97414974	      8.81526176	     -5.95514436	      3.93249794	     -3.48821454	     -4.64615841	      2.88178799
      1.33783333	     -3.55735223	      2.60431333	     -2.50102773	      0.28491329	      0.91223516	      0.32072570	     20.53796186	     -7.44514119	    -11.66404000	    -69.02859786	      0.23540807	      4.44433799	      8.59041267	     10.97133591	      6.34659042	     -2.46698262	    -15.48811490	      8.87354736	     -5.85874407	      3.93876456	     -3.54939739	     -4.36661305	      2.73700727
      1.34200000	     -3.51248859	      2.37741704	     -2.30743747	      0.28996491	      0.91325688	      0.32047413	     20.96203791	     -7.20441925	    -11.95419841	    -68.36703799	      0.71836148	      4.32514436	      8.47309093	     10.30814679	      6.16061323	     -2.23762594	    -14.97841664	      8.88986368	     -5.79647614	      3.94429177	     -3.63048952	     -4.10908795	      2.46484049
      1.34616667	     -3.46733764	      2.16148344	     -2.11091883	      0.29497789	      0.91422596	      0.32019648	     21.38051582	     -6.97856220	    -12.23818172	    -67.65856127	      1.17638318	      4.21309579	      8.33769873	      9.64453397	      5.98716191	     -1.99001124	    -14.45440441	      8.89606440	     -5.74362166	      3.95022648	     -3.72893295	     -3.84201885	      2.15988788
      1.35033333	     -3.41368966	      1.94038584	     -1.90648276	      0.29999176	      0.91517100	      0.31992523	     21.76676036	     -6.74353846	    -12.52873305	    -66.87909538	      1.61041402	      4.10814487	      8.20105535	      8.97647890	      5.80174371	     -1.74711217	    -13.93795390	      8.90582769	     -5.68849057	      3.95690238	     -3.82875762	     -3.58466442	      1.86842936
      1.35450000	     -3.34621036	      1.71933248	     -1.69281222	      0.30499124	      0.91609316	      0.31964597	     22.11996533	     -6.51085839	    -12.82698780	    -66.03877376	      2.02444519	      4.00343590	      8.05129805	      8.29598400	      5.61263417	     -1.50114421	    -13.41916158	      8.90843758	     -5.63754085	      3.96370267	     -3.94747656	     -3.32681223	      1.56199280
      1.35866667	     -3.29115661	      1.48183901	     -1.45797021	      0.30996027	      0.91695389	      0.31936268	     22.46182897	     -6.25878758	    -13.14646553	    -65.12847749	      2.44159819	      3.90647048	      7.96743891	      7.65971001	      5.39566243	     -1.28454313	    -12.95625788	      8.89802214	     -5.55184446	      3.96818801	     -4.04934168	     -3.05851695	      1.35171413
      1.36283333	     -3.18315944	      1.27749814	     -1.24578449	      0.31494794	      0.91783082	      0.31907383	     22.74368660	     -6.04558646	    -13.43873165	    -64.17943360	      2.77294000	      3.79711516	      7.81349783	      6.92329286	      5.21856427	     -1.02893291	    -12.39996046	      8.92577358	     -5.50788443	      3.97632318	     -4.21925503	     -2.80155323	      0.96585291
      1.36700000	     -3.09092645	      1.05912335	     -1.01095939	      0.31989921	      0.91863974	      0.31878483	     23.01836409	     -5.81493145	    -13.74889990	    -63.16111412	      3.11021819	      3.69826346	      7.67214299	      6.23590026	      5.01524878	     -0.79672607	    -11.90033667	      8.93599347	     -5.44719615	      3.98433044	     -4.36622523	     -2.54448412	      0.66551278
      1.37116667	     -2.99370399	      0.86224764	     -0.76945328	      0.32484390	      0.91939074	      0.31848646	     23.27614892	     -5.60993930	    -14.06056209	    -62.10274238	      3.45076144	      3.58368085	      7.42158772	      5.54053475	      4.83196949	     -0.55641982	    -11.38413821	      8.89452911	     -5.42121936	      3.99868878	     -4.51422375	     -2.31142206	      0.27263084
      1.37533333	     -2.88913752	      0.64829518	     -0.53640287	      0.32977604	      0.92010547	      0.31822371	     23.50702322	     -5.37329879	    -14.35617471	    -60.97193429	      3.70749272	      3.48644505	      7.30789175	      4.85117285	      4.61813448	     -0.35107015	    -10.90044384	      8.95688381	     -5.31312289	      4.00916104	     -4.67740302	     -2.05146708	      0.05917916
      1.37950000	     -2.79635767	      0.44135281	     -0.28395239	      0.33468530	      0.92074321	      0.31794782	     23.73257414	     -5.14722764	    -14.66492349	    -59.79143891	      3.98801396	      3.37911005	      7.22791085	      4.19573487	      4.40344891	     -0.16250810	    -10.44653987	      8.94977737	     -5.20279827	      4.01690935	     -4.82526068	     -1.80550718	     -0.17731000
      1.38366667	     -2.68047982	      0.25797851	     -0.04435378	      0.33959854	      0.92134720	      0.31768426	     23.92468297	     -4.94061695	    -14.95108703	    -58.56839345	      4.21176297	      3.25056060	      7.14221270	      3.49863230	      4.21104639	      0.03212154	     -9.95517177	      8.97266053	     -5.10296749	      4.02689440	     -4.99661895	     -1.58049218	     -0.47406805
      1.38783333	     -2.54807794	      0.10525583	      0.18067488	      0.34451136	      0.92189589	      0.31744192	     24.09711177	     -4.76125840	    -15.20910916	    -57.31921015	      4.37920090	      3.10281429	      6.99740473	      2.76675912	      4.04898806	      0.24031613	     -9.42717347	      9.01429185	     -5.03546885	      4.04498843	     -5.18938298	     -1.39551828	     -0.88110637
      1.39200000	     -2.45365351	     -0.06496174	      0.43156363	      0.34939343	      0.92234444	      0.31719851	     24.28175657	     -4.56075550	    -15.48568790	    -55.99795504	      4.56979670	      2.98454328	      6.90790190	      2.12224066	      3.85504813	      0.40907632	     -8.98430665	      9.01527297	     -4.92896691	      4.05800170	     -5.33294598	     -1.18449724	     -1.12369883
      1.39616667	     -2.33796590	     -0.21149014	      0.66657684	      0.35428602	      0.92275366	      0.31697708	     24.43547215	     -4.37667850	    -15.73475217	    -54.64088805	      4.71151447	      2.83176275	      6.81616369	      1.43635843	      3.68242644	      0.57655868	     -8.50261064	      9.03788272	     -4.81556697	      4.07373710	     -5.50089508	     -1.00396170	     -1.41913847
      1.40033333	     -2.21785352	     -0.32529884	      0.88351865	      0.35917665	      0.92308490	      0.31678409	     24.58348488	     -4.21819401	    -15.94756078	    -53.26224292	      4.80400537	      2.66104545	      6.68922288	      0.73332358	      3.54197228	      0.74730589	     -7.99583895	      9.08711320	     -4.71969130	      4.09800943	     -5.67667315	     -0.86156348	     -1.77755237
      1.40450000	     -2.13118450	     -0.45090829	      1.12164595	      0.36406226	      0.92332338	      0.31658980	     24.73835786	     -4.04604790	    -16.17565191	    -51.81734225	      4.91635455	      2.52105208	      6.59941661	      0.10137921	      3.37809335	      0.88444939	     -7.55459468	      9.08695488	     -4.59531419	      4.11694964	     -5.80348715	     -0.70290400	     -2.03031954
      1.40866667	     -2.03328254	     -0.55129110	      1.34051074	      0.36895695	      0.92350373	      0.31642854	     24.87410811	     -3.88816421	    -16.36741005	    -50.34205240	      4.98480808	      2.35179891	      6.50976730	     -0.55659483	      3.23793927	      1.01557045	     -7.08683708	      9.11262220	     -4.46411215	      4.13875056	     -5.94492115	     -0.57447807	     -2.31392452
      1.41283333	     -1.94044860	     -0.63328983	      1.54907956	      0.37386099	      0.92360673	      0.31629263	     25.00422735	     -3.74198749	    -16.53542813	    -48.83452876	      5.02733582	      2.17519871	      6.41786362	     -1.21085384	      3.11262067	      1.13529282	     -6.61780024	      9.14236969	     -4.33693754	      4.16360220	     -6.08231191	     -0.46872858	     -2.60449057
